<?xml version="1.0" encoding="utf-8"?>
<!-- Generator: Adobe Illustrator 24.0.1, SVG Export Plug-In . SVG Version: 6.00 Build 0)  -->
<svg version="1.1" id="Layer_1" xmlns="http://www.w3.org/2000/svg" xmlns:xlink="http://www.w3.org/1999/xlink" x="0px" y="0px"
	 viewBox="0 0 792 612" style="enable-background:new 0 0 792 612;" xml:space="preserve">
<style type="text/css">
	.st0{opacity:0.9;}
	.st1{opacity:0.85;}
	.st2{fill:url(#SVGID_1_);}
	.st3{fill:url(#SVGID_2_);}
	.st4{fill:url(#SVGID_3_);}
	.st5{fill:url(#SVGID_4_);}
	.st6{fill:#FF0000;}
	.st7{fill:url(#SVGID_5_);}
	.st8{fill:url(#SVGID_6_);}
</style>
<polygon points="52.82,181.93 74.88,181.93 103.11,226.09 96.95,250.96 "/>
<g>
	<polygon points="27.56,181.93 49.63,181.93 93.76,250.96 71.7,250.96 	"/>
	<polygon points="232.5,83.52 210.44,83.52 92.74,250.96 114.81,250.96 	"/>
	<polygon points="211.45,83.52 189.38,83.52 71.7,250.96 93.76,250.96 	"/>
</g>
<polygon class="st0" points="22.33,178.44 44.39,178.44 88.53,247.48 66.46,247.48 "/>
<polygon class="st0" points="47.62,178.44 69.68,178.44 113.82,247.48 91.76,247.48 "/>
<g class="st1">
	<linearGradient id="SVGID_1_" gradientUnits="userSpaceOnUse" x1="55.4292" y1="247.4756" x2="55.4292" y2="178.4414">
		<stop  offset="0" style="stop-color:#00FD8B"/>
		<stop  offset="0.2139" style="stop-color:#00F9CB"/>
		<stop  offset="0.5348" style="stop-color:#00C3CE"/>
		<stop  offset="0.7807" style="stop-color:#0066CE"/>
		<stop  offset="1" style="stop-color:#002FFE"/>
	</linearGradient>
	<polygon class="st2" points="22.33,178.44 44.39,178.44 88.53,247.48 66.46,247.48 	"/>
	<linearGradient id="SVGID_2_" gradientUnits="userSpaceOnUse" x1="80.7197" y1="247.4756" x2="80.7197" y2="178.4414">
		<stop  offset="0" style="stop-color:#00FD8B"/>
		<stop  offset="0.2139" style="stop-color:#00F9CB"/>
		<stop  offset="0.5348" style="stop-color:#00C3CE"/>
		<stop  offset="0.7807" style="stop-color:#0066CE"/>
		<stop  offset="1" style="stop-color:#002FFE"/>
	</linearGradient>
	<polygon class="st3" points="47.62,178.44 69.68,178.44 113.82,247.48 91.76,247.48 	"/>
</g>
<linearGradient id="SVGID_3_" gradientUnits="userSpaceOnUse" x1="136.34" y1="247.4756" x2="136.34" y2="80.0361">
	<stop  offset="0" style="stop-color:#41962F"/>
	<stop  offset="0.1337" style="stop-color:#54AA45"/>
	<stop  offset="0.4225" style="stop-color:#FFCC27"/>
	<stop  offset="0.5348" style="stop-color:#FFCC27"/>
	<stop  offset="0.7807" style="stop-color:#F9661C"/>
	<stop  offset="1" style="stop-color:#DC421E"/>
</linearGradient>
<polygon class="st4" points="206.22,80.04 184.15,80.04 66.46,247.48 88.53,247.48 "/>
<linearGradient id="SVGID_4_" gradientUnits="userSpaceOnUse" x1="161.34" y1="247.4756" x2="161.34" y2="80.0361">
	<stop  offset="0" style="stop-color:#41962F"/>
	<stop  offset="0.1337" style="stop-color:#54AA45"/>
	<stop  offset="0.4225" style="stop-color:#FFCC27"/>
	<stop  offset="0.5348" style="stop-color:#FFCC27"/>
	<stop  offset="0.7807" style="stop-color:#F9661C"/>
	<stop  offset="1" style="stop-color:#DC421E"/>
</linearGradient>
<polygon class="st5" points="231.22,80.04 209.15,80.04 91.46,247.48 113.53,247.48 "/>
<g>
	<path d="M296.05,498.74h38.12v-4.68h-15.39l-44.62-124.33h-6.36l-8.35,23.79L222.5,498.74h5.85l13.13-38.1h41.11l13.13,38.1H296.05
		z M243.15,455.8l17.69-51.31h2.39l17.69,51.31H243.15z"/>
	<path d="M738.39,498.74h38.11v-4.68h-15.39l-44.62-124.33h-6.36l-8.35,23.79l-36.95,105.22h5.85l13.13-38.1h41.11l13.13,38.1
		H738.39z M685.48,455.8l17.69-51.31h2.39l17.69,51.31H685.48z"/>
	<polygon points="428.95,498.74 471.92,498.74 471.92,494.06 453.36,494.06 453.36,372.41 424.11,372.41 398.14,456.63 
		396.08,456.63 370.61,372.41 322.13,372.41 322.13,377.25 340.52,377.25 340.52,498.74 345.87,498.74 345.87,379.26 347.79,379.26 
		384.15,498.74 390.67,498.74 427.56,379.09 428.95,379.09 	"/>
	<polygon points="520.73,377.25 539.29,377.25 539.29,372.41 496.32,372.41 496.32,494.06 477.94,494.06 477.94,498.74 
		539.29,498.74 539.29,494.06 520.73,494.06 	"/>
	<path d="M549.69,434.74c0,39.16,25.54,66.26,59.65,66.26c22.37,0,39.78-9.69,46.6-28.9c2.12-5.95,2.91-12.82,2.91-20.59h-45.84v4.6
		l18.57-0.01c0,0-0.03,6.21-0.03,9c0,21.78-5.32,30.98-22.93,30.98h-1.56c-22.04,0-29.26-18.54-29.26-35.56
		c0,0-0.66,0.98-0.66-25.66c0-26.63,0.66-27.08,0.66-27.08c0.88-22.45,10.91-34.22,29.26-34.22h2.73
		c20.55,0,31.64,14.78,36.18,33.54h4.97v-20.01c-5.6-4.19-11.41-9.84-17.68-13.24c-7.11-3.86-14.74-5.2-22.42-5.2
		C569.71,368.65,549.69,401.38,549.69,434.74z"/>
	<polygon class="st6" points="491.98,323.12 523.94,314 533.1,345.82 501.14,354.94 	"/>
</g>
<radialGradient id="SVGID_5_" cx="73.9916" cy="374.9934" r="141.2352" gradientUnits="userSpaceOnUse">
	<stop  offset="0.3315" style="stop-color:#FFFFFF"/>
	<stop  offset="0.6" style="stop-color:#DDDDDD"/>
	<stop  offset="1" style="stop-color:#7E8283"/>
</radialGradient>
<circle class="st7" cx="105.5" cy="407.5" r="95.98"/>
<radialGradient id="SVGID_6_" cx="72.0048" cy="374.0015" r="143.362" gradientUnits="userSpaceOnUse">
	<stop  offset="0" style="stop-color:#FFFFFF"/>
	<stop  offset="0.12" style="stop-color:#FFE3D2"/>
	<stop  offset="0.55" style="stop-color:#FF0000"/>
	<stop  offset="1" style="stop-color:#4E1E1C"/>
</radialGradient>
<path class="st8" d="M178.54,352.14c-9.66-16.8-24.57-29.8-43.38-35.92c-18.82-6.11-38.52-4.35-56.21,3.56l14.17,4.6
	c13.8-9.17,28.58-12.53,42.04-8.16c13.46,4.38,23.44,15.78,29.21,31.31L178.54,352.14z M143.3,340.69
	c0.02-13.66-2.64-22.68-8.14-24.47c-5.5-1.78-12.96,3.95-20.97,15.01L143.3,340.69z M128.94,415.11
	c4.59-14.13,8.12-27.79,10.52-40.21l-42.27-13.74c-5.36,11.47-10.53,24.59-15.13,38.73L128.94,415.11z M71.54,440.1
	c-2.53,13.05-3.83,24.75-3.84,34.21l29.11,9.46c5.55-7.66,11.38-17.89,17-29.93L71.54,440.1z M25.56,460.62
	c11.56,17.42,28.86,31.2,50.28,38.16c21.42,6.96,43.52,5.98,63.11-1.32l-6.9-2.24c-17.69,7.91-37.39,9.67-56.21,3.56
	c-18.81-6.12-33.72-19.12-43.38-35.92L25.56,460.62z M46.63,467.47C52.4,483,62.38,494.4,75.84,498.78
	c13.46,4.37,28.24,1.01,42.04-8.16l-21.07-6.85c-8.01,11.06-15.47,16.79-20.97,15.01c-5.5-1.79-8.16-10.81-8.14-24.47L46.63,467.47z
	 M20.36,423.48c1.22,14.26,5.4,27.73,12.1,39.38l14.17,4.61c-4-10.77-5.98-23.53-5.69-37.31L20.36,423.48z M132.05,495.22
	c12.27-5.48,23.57-13.93,32.94-24.75l-20.58-6.69c-7.87,11.32-16.96,20.47-26.53,26.84L132.05,495.22z M14.22,377.84
	c-4.59,14.14-5.73,28.57-3.87,42.38l10.01,3.26c-1.16-13.59,0.37-27.89,4.96-42.03L14.22,377.84z M175,473.72
	c9.62-10.08,17.18-22.42,21.78-36.56l-11.1-3.61c-4.6,14.14-11.77,26.61-20.69,36.92L175,473.72z M48.14,388.86
	c-4.59,14.14-6.92,28.19-7.2,41.3l30.6,9.94c2.4-12.42,5.93-26.08,10.52-40.21L48.14,388.86z M144.41,463.78
	c7.48-10.77,13.85-23.51,18.45-37.64l-33.92-11.03c-4.6,14.14-9.77,27.26-15.13,38.73L144.41,463.78z M185.68,433.55
	c4.59-14.14,6.12-28.44,4.96-42.03l-20.58-6.68c-0.28,13.11-2.61,27.16-7.2,41.3L185.68,433.55z M46.01,344.53
	c-8.92,10.31-16.09,22.78-20.69,36.92l22.82,7.41c4.6-14.13,10.97-26.87,18.45-37.64L46.01,344.53z M170.06,384.84
	c0.29-13.78-1.69-26.54-5.69-37.31l-21.07-6.84c-0.01,9.47-1.31,21.16-3.84,34.21L170.06,384.84z M93.12,324.38
	c-9.57,6.36-18.66,15.52-26.53,26.84l30.6,9.94c5.62-12.04,11.44-22.27,17-29.93L93.12,324.38z M200.65,394.78
	c-1.95-14.51-7.2-28.33-15.21-40.4l-6.9-2.24c6.7,11.65,10.88,25.12,12.1,39.38L200.65,394.78z M72.05,317.54
	C58.47,322.6,46.1,330.69,36,341.28l10.01,3.25c9.37-10.82,20.67-19.27,32.94-24.75L72.05,317.54z"/>
<g>
	<path d="M261.77,209.58l0.82-31.85l-32.53,31.85H261.77z M262.06,215.47h-37.98l-7.41,7.56l-8.35,8.23
		c-1.6,1.8-2.77,3.43-3.48,4.89c-0.56,1.12-0.8,2.24-0.75,3.36c0.06,1.17,0.88,2.25,2.48,3.25c1.6,1,4.19,1.57,7.77,1.72l0.12,2.51
		h-36.83l0.79-2.51c3.24-0.43,6.1-1.36,8.58-2.77c3.29-1.95,7.97-5.96,14.02-12.03l83.28-82.5h4.09l-0.01,79.85
		c0.03,4.17,0.06,6.69,0.1,7.57c0.17,3.32,1.11,5.73,2.83,7.24c1.73,1.52,4.5,2.39,8.35,2.64l-0.78,2.51h-53.31l0.88-2.51
		c5.26-0.39,8.28-0.73,9.05-1.01c1.67-0.68,3.15-2.1,4.44-4.25c1.28-2.16,1.95-5.9,1.99-11.23L262.06,215.47z"/>
	<path d="M377.12,149.38l12.54,67.18l55.19-67.18h43.31l-0.97,2.51c-5.93,0-10.4,1.01-13.39,3.03c-2.98,2.02-5.42,6.01-7.3,11.97
		l-19.54,62.57c-1.26,3.99-1.84,6.95-1.73,8.9c0.09,1.79,1.07,3.24,2.94,4.34c1.87,1.09,5.48,1.69,10.81,1.79l-0.69,2.51h-61.44
		l0.96-2.51c6.61,0,11.43-1,14.48-3.03c3.04-2.02,5.51-6.02,7.39-11.99l19.79-63.37l-66.33,80.89h-3.81l-15.27-82.48l-20.29,64.96
		c-0.83,2.67-1.2,4.91-1.12,6.71c0.12,2.43,1.27,4.38,3.43,5.86c2.17,1.48,5.77,2.3,10.8,2.44l-0.78,2.51h-40.71l0.69-2.51
		c4.9-0.15,8.61-0.97,11.14-2.48c4.46-2.72,7.59-6.9,9.37-12.54l22.95-72.24c-2.65-2.21-5.01-3.65-7.07-4.33
		c-2.06-0.67-5.48-1.01-10.26-1.01l0.95-2.51H377.12z"/>
	<path d="M499.04,151.88l0.88-2.51h60.18l-1.06,2.51c-5.45,0-9.57,0.97-12.35,2.91c-2.78,1.93-5.11,5.98-6.98,12.15l-19.51,62.47
		c-1.41,4.46-2.08,7.45-2.01,8.95c0.09,1.75,1,3.1,2.75,4.08c2.25,1.26,6.4,1.94,12.47,2.04l-0.79,2.51h-60.99l0.88-2.51
		c6.12,0,10.55-0.94,13.31-2.8c2.75-1.86,5.12-5.96,7.11-12.26l19.51-62.47c1.2-3.88,1.74-6.82,1.65-8.81
		c-0.1-1.79-1.01-3.2-2.76-4.21C509.58,152.9,505.47,152.22,499.04,151.88z"/>
	<path d="M672.94,148.08c0.88,0.82,1.14,3.5,1.14,3.5l-5.85,26.8h-3.16c-0.94-9.03-1.27-15.54-6.18-19.51
		c-4.91-3.97-7.45-6.2-15.96-6.2c-8.76,0-19.85,2.67-28.37,7.53c-8.51,4.86-19.07,12.36-24.74,22.49
		c-5.66,10.14-9.09,20.78-8.53,31.95c0.48,9.58,3.71,16.9,9.68,21.95c5.96,5.06,12.79,7.58,20.47,7.58c3.24,0,7.14-0.69,11.71-2.09
		l8.04-25.77c1.36-4.33,2-7.15,1.94-8.5c-0.09-1.78-1.12-3.28-3.09-4.5c-1.98-1.22-5.29-1.84-9.95-1.84l0.76-2.79h52.91l-0.68,2.79
		c-3.14,0.16-5.58,0.63-7.33,1.46c-1.74,0.82-3.1,2.02-4.04,3.61c-0.56,0.94-1.38,3.37-2.45,7.28l-9.07,29.04
		c-12.81,4.21-26.43,6.31-40.82,6.31c-11.11,0-20.62-1.56-28.57-4.67c-7.94-3.12-14.64-8.05-20.1-14.82
		c-5.46-6.76-8.4-14.46-8.83-23.1c-0.92-18.41,8.67-33.6,28.77-45.53c15.74-9.26,33.5-13.31,53.88-14.31
		c1.93,0,6.92-0.47,13.87-0.47c5.9,0,12.74,0.19,22.64,0.89C671.01,147.18,671.86,147.07,672.94,148.08z"/>
	<path d="M740.04,209.58l0.83-31.85l-32.53,31.85H740.04z M740.34,215.47h-37.96l-7.41,7.56l-8.35,8.23
		c-1.61,1.8-2.77,3.43-3.49,4.89c-0.55,1.12-0.8,2.24-0.74,3.36c0.06,1.17,0.88,2.25,2.48,3.25c1.59,1,4.18,1.57,7.77,1.72
		l0.12,2.51h-36.83l0.78-2.51c3.25-0.43,6.11-1.36,8.58-2.77c3.29-1.95,7.98-5.96,14.03-12.03l83.28-82.5h4.09l-0.02,79.85
		c0.03,4.17,0.07,6.69,0.11,7.57c0.17,3.32,1.11,5.73,2.83,7.24c1.72,1.52,4.5,2.39,8.34,2.64l-0.78,2.51h-53.31l0.88-2.51
		c5.25-0.39,8.28-0.73,9.05-1.01c1.66-0.68,3.15-2.1,4.43-4.25c1.29-2.16,1.95-5.9,1.99-11.23L740.34,215.47z"/>
</g>
</svg>
